# xmcd CD database file
#
# Track frame offsets:
#	150
#	62738
#	108648
#	159614
#	194678
#	224019
#
# Disc length: 3384 seconds
#
# Revision: 0
# Processed by: cddbd v1.4PL0 Copyright (c) Steve Scherf et al.
# Submitted via: CDex 1.50Beta7
#
DISCID=5f0d3606
DTITLE=Robin Crow - Irresistible Flame
DYEAR=2001
DGENRE=New Age
TTITLE0=Beyond Imagination
TTITLE1=Eyes Wide Open
TTITLE2=Trial By Fire
TTITLE3=Slow Burn
TTITLE4=Dancing On The Edge
TTITLE5=Spark In The Dark
EXTD=YEAR: 2001
EXTT0=
EXTT1=
EXTT2=
EXTT3=
EXTT4=
EXTT5=
PLAYORDER=
